<?xml version="1.0" encoding="utf-8"?>
<!-- Generator: Adobe Illustrator 19.2.1, SVG Export Plug-In . SVG Version: 6.00 Build 0)  -->
<svg version="1.1" id="Layer_1" xmlns="http://www.w3.org/2000/svg" xmlns:xlink="http://www.w3.org/1999/xlink" x="0px" y="0px"
	 viewBox="0 0 100 125" style="enable-background:new 0 0 100 125;" xml:space="preserve">
<style type="text/css">
	.st0{fill:url(#SVGID_1_);}
	.st1{font-family:'HelveticaNeue-Bold';}
	.st2{font-size:5px;}
</style>
<title>animals</title>
<linearGradient id="SVGID_1_" gradientUnits="userSpaceOnUse" x1="12.07" y1="51.455" x2="88.92" y2="51.455">
	<stop  offset="0.2239" style="stop-color:#02B9F0"/>
	<stop  offset="0.9505" style="stop-color:#A13BFD"/>
</linearGradient>
<path class="st0" d="M78.6,34.9l4-12.3l-5-6.6h-7l-6.1,5.8H36.4L30.4,16h-7l-5,6.6l4,12.3L12.1,57.2L27,84.6l23.7,2.3l23.3-2.3
	l15-27.5L78.6,34.9z M86.5,56.7L76.2,62l2-23.2L86.5,56.7z M51.5,73.3l4.8-2.7v-3.5H44.7v3.5l4.8,2.7v2h-8.6V54.8l9.6-5l9.6,5v20.6
	h-8.6L51.5,73.3L51.5,73.3z M26.9,63.4l-2.4-28l11.7-11.2l13.3,9.5l0,0v14.5L47,49.3l-2-12.9l-11.2,5.4l-5.2,11.6l10.3,11.2v11.6
	L26.9,63.4z M50.9,31.6h-0.8l-10.9-7.8h22.6L50.9,31.6z M36.7,52.2l-2.8-2.7l3.8-2.5l5.3,4.4l-1.4,0.7L36.7,52.2z M59.4,52.1
	L58,51.4l5.2-4.4l3.8,2.6l-2.9,2.6L59.4,52.1z M62.1,64.6l10.3-11.2l-5.2-11.5l-11.3-5.4L54,49.3l-2.5-1.3V33.6h0.1l13.3-9.5
	l11.6,11.2l-2.4,28l-12,12.9L62.1,64.6L62.1,64.6z M22.8,38.8l2,23.2l-10.3-5.4L22.8,38.8z M15.6,59.5l9.7,5.1l18.2,19.6l-15.3-1.5
	L15.6,59.5z M50.6,84.9l-4.1-0.4l-5.7-6.1v-2.8l9.6,5.3l9.7-5.3v2.8l-5.7,6.2L50.6,84.9z M72.6,82.8l-15.3,1.5l18.3-19.7l9.7-5.1
	L72.6,82.8z"/>
<text transform="matrix(1 0 0 1 0 115)" class="st1 st2">Created by Erica Grau</text>
<text transform="matrix(1 0 0 1 0 120)" class="st1 st2">from the Noun Project</text>
</svg>
