<svg id="Layer_1" data-name="Layer 1" xmlns="http://www.w3.org/2000/svg" xmlns:xlink="http://www.w3.org/1999/xlink" viewBox="0 0 76.85 70.91"><defs><style>.cls-1{fill:url(#linear-gradient);}</style><linearGradient id="linear-gradient" x1="13.08" y1="32.27" x2="89.93" y2="32.27" gradientUnits="userSpaceOnUse"><stop offset="0.22" stop-color="#02b9f0"/><stop offset="0.95" stop-color="#a13bfd"/></linearGradient></defs><title>Code Panda logo (white bg)</title><path class="cls-1" d="M79.6,15.72l4-12.27-5-6.63h-7L65.54,2.63H37.45L31.39-3.18h-7l-5,6.63,4,12.27L13.08,38,28,65.46l23.65,2.27,23.27-2.27L89.93,38ZM87.48,37.5L77.21,42.87l2-23.25Zm-35,16.59,4.83-2.68V47.89H45.66v3.52l4.83,2.68v2H41.85V35.57l9.64-5,9.64,5V56.13H52.49v-2Zm-24.6-9.92-2.39-28L37.15,4.94,50.44,14.4h0V28.87L48,30.17,46,17.28,34.79,22.72,29.54,34.28l10.3,11.16V57Zm24-31.77h-0.8L40.18,4.64H62.8ZM37.75,33L34.9,30.36l3.83-2.54L44,32.22,42.58,33Zm22.66-.07L59,32.22l5.25-4.4,3.83,2.56L65.23,33Zm2.72,12.48,10.3-11.16L68.2,22.72,56.93,17.28,55,30.17l-2.5-1.28V14.4h0.06L65.86,4.94,77.48,16.17l-2.39,28L63.09,57V45.44h0ZM23.79,19.62l2,23.25L15.51,37.5ZM16.65,40.36l9.66,5.05L44.55,65,29.28,63.57Zm35,25.37-4.13-.4-5.7-6.14v-2.8l9.62,5.27,9.66-5.27V59.2l-5.73,6.17Zm22-2.15-15.3,1.49L76.67,45.41l9.66-5.06Z" transform="translate(-13.08 3.18)"/></svg>